# xmcd
#
# Track frame offsets: 
#        150
#        27756
#        71409
#        102409
#        133495
#        166125
#        189015
#
# Disc length: 2834 seconds
#
# Revision: 0
# Processed by: cddbd v1.5.2PL0 Copyright (c) Steve Scherf et al.
# Submitted via: ExactAudioCopyFreeDBPlugin 1.0
#
DISCID=560b1007
DTITLE=Don Byas - Don Byas at Nalen
DYEAR=1962
DGENRE=Jazz
TTITLE0=There'll never be another you
TTITLE1=I remember Clifford
TTITLE2=All the things you are
TTITLE3=Walkin'
TTITLE4=I'll remember April
TTITLE5=I got rythm (Bonus track)
TTITLE6=Indiana (Bonus track)
EXTD=
EXTT0=
EXTT1=
EXTT2=
EXTT3=
EXTT4=
EXTT5=
EXTT6=
PLAYORDER=
